<svg width="78" height="25" viewBox="0 0 78 25" fill="none" xmlns="http://www.w3.org/2000/svg">
<rect x="1" y="1" width="76" height="23" stroke="white" stroke-width="2"/>
<rect y="1" width="39" height="22" fill="white"/>
<path d="M7.75977 8.97461C7.58008 8.97461 7.40234 8.98047 7.22656 8.99219V15.0391C7.22656 15.125 7.24219 15.1973 7.27344 15.2559C7.32422 15.3262 7.42188 15.3789 7.56641 15.4141C7.71094 15.4453 7.93359 15.4609 8.23438 15.4609C8.48828 15.4609 8.75391 15.3984 9.03125 15.2734C9.30859 15.1445 9.5625 14.9492 9.79297 14.6875C10.0234 14.4258 10.2129 14.0957 10.3613 13.6973C10.5098 13.2949 10.584 12.8184 10.584 12.2676C10.584 11.748 10.5215 11.2852 10.3965 10.8789C10.2754 10.4688 10.0938 10.123 9.85156 9.8418C9.61328 9.56055 9.31836 9.3457 8.9668 9.19727C8.61914 9.04883 8.2168 8.97461 7.75977 8.97461ZM11.7734 12.0391C11.7734 12.5273 11.7227 12.9648 11.6211 13.3516C11.5234 13.7344 11.3887 14.0742 11.2168 14.3711C11.0488 14.6641 10.8516 14.9141 10.625 15.1211C10.4023 15.3242 10.166 15.4922 9.91602 15.625C9.66602 15.7539 9.41016 15.8496 9.14844 15.9121C8.88672 15.9707 8.63477 16 8.39258 16H5.28125V15.6895C5.54688 15.6348 5.75195 15.5762 5.89648 15.5137C6.04102 15.4473 6.11328 15.3867 6.11328 15.332V9.09766C5.96094 9.11719 5.81445 9.13672 5.67383 9.15625C5.5332 9.17578 5.40234 9.19531 5.28125 9.21484L5.2168 8.79297C5.39648 8.74609 5.60547 8.70117 5.84375 8.6582C6.08203 8.61523 6.33203 8.57812 6.59375 8.54688C6.85547 8.51172 7.12109 8.48633 7.39062 8.4707C7.66016 8.45117 7.91406 8.44141 8.15234 8.44141C8.71484 8.44141 9.21875 8.52344 9.66406 8.6875C10.1133 8.84766 10.4941 9.08203 10.8066 9.39062C11.1191 9.69922 11.3574 10.0762 11.5215 10.5215C11.6895 10.9668 11.7734 11.4727 11.7734 12.0391ZM16.707 12.8359L15.6992 9.91797L14.7383 12.8359H16.707ZM14.5449 13.4219L13.9238 15.291C13.8848 15.4121 13.9355 15.5 14.0762 15.5547C14.2168 15.6094 14.4473 15.6543 14.7676 15.6895V16H12.2891V15.6895C12.5547 15.6426 12.7637 15.5938 12.916 15.543C13.0684 15.4922 13.1641 15.4082 13.2031 15.291L15.3359 8.81055C15.4609 8.69336 15.6055 8.58984 15.7695 8.5C15.9375 8.41016 16.0898 8.33789 16.2266 8.2832L18.6875 15.291C18.707 15.3457 18.7324 15.3945 18.7637 15.4375C18.7988 15.4805 18.8457 15.5176 18.9043 15.5488C18.9629 15.5801 19.0352 15.6074 19.1211 15.6309C19.2109 15.6543 19.3184 15.6738 19.4434 15.6895V16H16.8242V15.6895C17.1289 15.6699 17.3379 15.6309 17.4512 15.5723C17.5645 15.5137 17.5996 15.4199 17.5566 15.291L16.9121 13.4219H14.5449ZM19.9648 16V15.6895C20.2305 15.6348 20.4355 15.5762 20.5801 15.5137C20.7246 15.4473 20.7969 15.3867 20.7969 15.332V9.29102C20.7969 9.24414 20.7285 9.18555 20.5918 9.11523C20.4551 9.04492 20.2461 8.98242 19.9648 8.92773V8.61719H22.748V8.92773C22.4824 8.98242 22.2754 9.04297 22.127 9.10938C21.9824 9.17578 21.9102 9.23633 21.9102 9.29102V15.332C21.9102 15.3789 21.9785 15.4375 22.1152 15.5078C22.2559 15.5742 22.4668 15.6348 22.748 15.6895V16H19.9648ZM28.9355 14.4531C28.9199 14.6211 28.9004 14.7852 28.877 14.9453C28.8574 15.1055 28.8359 15.2559 28.8125 15.3965C28.793 15.5332 28.7715 15.6543 28.748 15.7598C28.7285 15.8613 28.7109 15.9414 28.6953 16H23.5391V15.6895C23.8047 15.6348 24.0098 15.5762 24.1543 15.5137C24.2988 15.4473 24.3711 15.3867 24.3711 15.332V9.29102C24.3711 9.24414 24.3027 9.18555 24.166 9.11523C24.0293 9.04492 23.8203 8.98242 23.5391 8.92773V8.61719H26.3223V8.92773C26.0566 8.98242 25.8496 9.04297 25.7012 9.10938C25.5566 9.17578 25.4844 9.23633 25.4844 9.29102V14.9805C25.4844 15.0508 25.5 15.1133 25.5312 15.168C25.5664 15.2188 25.625 15.2637 25.707 15.3027C25.7891 15.3379 25.9004 15.3652 26.041 15.3848C26.1816 15.4043 26.3594 15.4141 26.5742 15.4141H27.3535C27.5332 15.4141 27.6836 15.4004 27.8047 15.373C27.9297 15.3457 28.0391 15.293 28.1328 15.2148C28.2266 15.1367 28.3105 15.0273 28.3848 14.8867C28.4629 14.7461 28.543 14.5605 28.625 14.3301L28.9355 14.4531ZM31.1855 16V15.6895C31.541 15.6152 31.7871 15.541 31.9238 15.4668C32.0645 15.3887 32.1348 15.3223 32.1348 15.2676V12.8652C31.9902 12.5488 31.8281 12.2227 31.6484 11.8867C31.4688 11.5469 31.2852 11.2168 31.0977 10.8965C30.9102 10.5762 30.7266 10.2793 30.5469 10.0059C30.3711 9.73242 30.2148 9.50195 30.0781 9.31445C30.043 9.27148 30.0039 9.23242 29.9609 9.19727C29.918 9.1582 29.8613 9.125 29.791 9.09766C29.7246 9.06641 29.6387 9.04297 29.5332 9.02734C29.4277 9.01172 29.293 9.00391 29.1289 9.00391L29.1055 8.69336C29.2188 8.67773 29.3379 8.66211 29.4629 8.64648C29.5918 8.63086 29.7168 8.61719 29.8379 8.60547C29.9629 8.58984 30.0801 8.57812 30.1895 8.57031C30.2988 8.5625 30.3945 8.55859 30.4766 8.55859C30.5703 8.55859 30.6602 8.58008 30.7461 8.62305C30.8359 8.66211 30.9141 8.7207 30.9805 8.79883C31.125 8.99023 31.2793 9.21289 31.4434 9.4668C31.6074 9.7207 31.7715 9.99023 31.9355 10.2754C32.1035 10.5566 32.2656 10.8477 32.4219 11.1484C32.582 11.4453 32.7305 11.7344 32.8672 12.0156L34.373 9.31445C34.4316 9.21289 34.4121 9.13281 34.3145 9.07422C34.2207 9.01562 34.0234 8.9668 33.7227 8.92773V8.61719H36.084V8.92773C35.8184 8.97852 35.6152 9.03125 35.4746 9.08594C35.3379 9.14062 35.2422 9.2168 35.1875 9.31445L33.248 12.8594V15.2676C33.248 15.291 33.2637 15.3203 33.2949 15.3555C33.3262 15.3867 33.377 15.4219 33.4473 15.4609C33.5215 15.5 33.6191 15.5391 33.7402 15.5781C33.8652 15.6172 34.0195 15.6543 34.2031 15.6895V16H31.1855Z" fill="black"/>
<path d="M46.3965 16V15.6895C46.5762 15.6543 46.7266 15.6172 46.8477 15.5781C46.9688 15.5391 47.0645 15.502 47.1348 15.4668C47.209 15.4277 47.2617 15.3926 47.293 15.3613C47.3242 15.3262 47.3398 15.2949 47.3398 15.2676V9.20312H45.6758C45.6172 9.20312 45.5625 9.2168 45.5117 9.24414C45.4648 9.27148 45.4141 9.32617 45.3594 9.4082C45.3086 9.48633 45.252 9.59766 45.1895 9.74219C45.127 9.88281 45.0527 10.0664 44.9668 10.293L44.6562 10.1699C44.6641 10.0566 44.6758 9.93164 44.6914 9.79492C44.707 9.6543 44.7227 9.51562 44.7383 9.37891C44.7578 9.23828 44.7773 9.10156 44.7969 8.96875C44.8203 8.83594 44.8418 8.71875 44.8613 8.61719H50.8965L51.0898 8.77539C51.0859 8.87695 51.0781 8.98828 51.0664 9.10938C51.0547 9.22656 51.0391 9.35156 51.0195 9.48438C51.0039 9.61328 50.9844 9.74414 50.9609 9.87695C50.9414 10.0098 50.9199 10.1367 50.8965 10.2578H50.5742C50.5352 10.0781 50.502 9.92188 50.4746 9.78906C50.4473 9.65625 50.416 9.54688 50.3809 9.46094C50.3457 9.37109 50.3008 9.30664 50.2461 9.26758C50.1953 9.22461 50.1289 9.20312 50.0469 9.20312H48.4531V15.2676C48.4531 15.291 48.4688 15.3203 48.5 15.3555C48.5312 15.3867 48.584 15.4219 48.6582 15.4609C48.7324 15.5 48.8301 15.5391 48.9512 15.5781C49.0723 15.6172 49.2227 15.6543 49.4023 15.6895V16H46.3965ZM55.7539 12.8359L54.7461 9.91797L53.7852 12.8359H55.7539ZM53.5918 13.4219L52.9707 15.291C52.9316 15.4121 52.9824 15.5 53.123 15.5547C53.2637 15.6094 53.4941 15.6543 53.8145 15.6895V16H51.3359V15.6895C51.6016 15.6426 51.8105 15.5938 51.9629 15.543C52.1152 15.4922 52.2109 15.4082 52.25 15.291L54.3828 8.81055C54.5078 8.69336 54.6523 8.58984 54.8164 8.5C54.9844 8.41016 55.1367 8.33789 55.2734 8.2832L57.7344 15.291C57.7539 15.3457 57.7793 15.3945 57.8105 15.4375C57.8457 15.4805 57.8926 15.5176 57.9512 15.5488C58.0098 15.5801 58.082 15.6074 58.168 15.6309C58.2578 15.6543 58.3652 15.6738 58.4902 15.6895V16H55.8711V15.6895C56.1758 15.6699 56.3848 15.6309 56.498 15.5723C56.6113 15.5137 56.6465 15.4199 56.6035 15.291L55.959 13.4219H53.5918ZM63.9629 13.791C63.9629 13.9668 63.9375 14.1465 63.8867 14.3301C63.8398 14.5137 63.7656 14.6953 63.6641 14.875C63.5664 15.0508 63.4434 15.2188 63.2949 15.3789C63.1465 15.5352 62.9707 15.6719 62.7676 15.7891C62.5684 15.9062 62.3418 16 62.0879 16.0703C61.8379 16.1406 61.5586 16.1758 61.25 16.1758C61.1172 16.1758 60.9688 16.1621 60.8047 16.1348C60.6445 16.1074 60.4785 16.0684 60.3066 16.0176C60.1387 15.9707 59.9707 15.9121 59.8027 15.8418C59.6387 15.7715 59.4883 15.6914 59.3516 15.6016C59.3242 15.5859 59.3027 15.5156 59.2871 15.3906C59.2754 15.2656 59.2695 15.1191 59.2695 14.9512C59.2695 14.7832 59.2773 14.6113 59.293 14.4355C59.3086 14.2559 59.334 14.1055 59.3691 13.9844L59.668 14.0137C59.7578 14.2441 59.8691 14.4473 60.002 14.623C60.1348 14.7988 60.2812 14.9473 60.4414 15.0684C60.6055 15.1855 60.7812 15.2754 60.9688 15.3379C61.1562 15.3965 61.3496 15.4258 61.5488 15.4258C61.7246 15.4258 61.8984 15.3945 62.0703 15.332C62.2422 15.2656 62.3965 15.1758 62.5332 15.0625C62.6738 14.9453 62.7852 14.8086 62.8672 14.6523C62.9531 14.4922 62.9961 14.3184 62.9961 14.1309C62.9961 13.8926 62.9434 13.6875 62.8379 13.5156C62.7324 13.3438 62.5938 13.1914 62.4219 13.0586C62.25 12.9219 62.0547 12.8008 61.8359 12.6953C61.6172 12.5859 61.3926 12.4785 61.1621 12.373C60.9316 12.2676 60.707 12.1562 60.4883 12.0391C60.2695 11.918 60.0742 11.7812 59.9023 11.6289C59.7305 11.4727 59.5918 11.291 59.4863 11.084C59.3809 10.877 59.3281 10.6309 59.3281 10.3457C59.3281 10.1621 59.373 9.96094 59.4629 9.74219C59.5527 9.51953 59.6953 9.3125 59.8906 9.12109C60.0859 8.92578 60.3379 8.76367 60.6465 8.63477C60.959 8.50586 61.3379 8.44141 61.7832 8.44141C61.9707 8.44141 62.1582 8.45508 62.3457 8.48242C62.5332 8.50977 62.707 8.54688 62.8672 8.59375C63.0273 8.64062 63.1719 8.69727 63.3008 8.76367C63.4297 8.83008 63.5293 8.90234 63.5996 8.98047C63.627 9.00391 63.627 9.05664 63.5996 9.13867C63.5723 9.2168 63.5312 9.30469 63.4766 9.40234C63.4219 9.49609 63.3613 9.58789 63.2949 9.67773C63.2285 9.76758 63.1719 9.83398 63.125 9.87695L62.8555 9.8418C62.7539 9.69727 62.6445 9.57422 62.5273 9.47266C62.4102 9.37109 62.291 9.29102 62.1699 9.23242C62.0488 9.16992 61.9258 9.125 61.8008 9.09766C61.6797 9.07031 61.5645 9.05664 61.4551 9.05664C61.2441 9.05664 61.0645 9.08789 60.916 9.15039C60.7676 9.20898 60.6445 9.28711 60.5469 9.38477C60.4492 9.47852 60.377 9.58398 60.3301 9.70117C60.2871 9.81836 60.2656 9.93164 60.2656 10.041C60.2656 10.2246 60.3184 10.3887 60.4238 10.5332C60.5293 10.6738 60.668 10.8047 60.8398 10.9258C61.0156 11.043 61.2129 11.1562 61.4316 11.2656C61.6543 11.375 61.8809 11.4883 62.1113 11.6055C62.3457 11.7188 62.5723 11.8438 62.791 11.9805C63.0137 12.1133 63.2109 12.2656 63.3828 12.4375C63.5586 12.6094 63.6992 12.8066 63.8047 13.0293C63.9102 13.248 63.9629 13.502 63.9629 13.791ZM64.7539 16V15.6895C65.0195 15.6348 65.2246 15.5762 65.3691 15.5137C65.5137 15.4473 65.5859 15.3867 65.5859 15.332V9.29102C65.5859 9.24414 65.5176 9.18555 65.3809 9.11523C65.2441 9.04492 65.0352 8.98242 64.7539 8.92773V8.61719H67.5371V8.92773C67.2715 8.98242 67.0645 9.04297 66.916 9.10938C66.7715 9.17578 66.6992 9.23633 66.6992 9.29102V12.1855L69.0254 9.44922C69.1152 9.34375 69.1738 9.25977 69.2012 9.19727C69.2285 9.13477 69.2246 9.08594 69.1895 9.05078C69.1582 9.01562 69.0957 8.99023 69.002 8.97461C68.9082 8.95508 68.7852 8.93945 68.6328 8.92773V8.61719H71.1523V8.92773C71.0273 8.94336 70.918 8.95898 70.8242 8.97461C70.7305 8.99023 70.6465 9.01172 70.5723 9.03906C70.498 9.0625 70.4297 9.09375 70.3672 9.13281C70.3047 9.17188 70.2441 9.22461 70.1855 9.29102L67.6367 12.0566L70.4668 15.1797C70.5996 15.3281 70.752 15.416 70.9238 15.4434C71.0957 15.4668 71.2832 15.4668 71.4863 15.4434L71.5273 15.7539C71.4141 15.7891 71.2949 15.8262 71.1699 15.8652C71.0449 15.9043 70.9199 15.9414 70.7949 15.9766C70.6738 16.0078 70.5566 16.0332 70.4434 16.0527C70.3301 16.0723 70.2266 16.082 70.1328 16.082C70.0195 16.082 69.918 16.0645 69.8281 16.0293C69.7422 15.9941 69.6602 15.9277 69.582 15.8301L66.6992 12.2852V15.332C66.6992 15.3789 66.7676 15.4375 66.9043 15.5078C67.041 15.5742 67.252 15.6348 67.5371 15.6895V16H64.7539Z" fill="white"/>
</svg>
